#!OML:ASF X:\für Bonn\!DataBase\2005_08_12_Daniel\c3d\Daniel.ASF
:FULLY-SPECIFIED
:DEGREES
17
root -0.338895 17.1633 0.621034 17.2541 -76.5841 -36.3018
lowerback 32.154 -13.1225 0.709227
upperback 10.2534 -17.5836 -1.50585
thorax -5.84924 -8.93194 4.27188
lowerneck 4.27297 9.12058 -1.69584
upperneck 14.3169 11.9658 -3.96395
head 4.14519 5.37561 -0.773248
rclavicle -1.82286e-013 4.21423e-014
rhumerus -48.8717 28.6076 -75.0779
rradius 71.5436
rwrist 5.32747
rhand -40.3758 45.0331
rfingers 7.12502
rthumb -13.33 15.4794
lclavicle -1.82286e-013 4.21423e-014
lhumerus 32.5731 3.80478 74.1278
lradius 128.89
lwrist 25.3554
lhand -21.755 -17.3844
lfingers 7.12502
lthumb 4.64537 12.5447
rfemur -35.8356 -3.00279 23.2395
rtibia 83.7643
rfoot 0.684377 -8.17942
rtoes -7.42028
lfemur -1.20232 -15.9163 -18.6787
ltibia 38.483
lfoot -22.6195 6.41813
ltoes 5.06251
18
root -0.332017 17.1815 0.646374 18.4369 -76.3332 -38.1595
lowerback 33.4724 -13.5606 0.740404
upperback 10.0985 -18.1493 -1.32197
thorax -5.85063 -9.2349 4.5121
lowerneck 4.34937 9.34963 -1.7591
upperneck 13.9986 12.2786 -4.2076
head 4.03764 5.5291 -0.844594
rclavicle 7.7526e-014 0
rhumerus -49.7482 27.8152 -75.2659
rradius 70.465
rwrist 5.6893
rhand -40.7874 44.7141
rfingers 7.12502
rthumb -13.7267 15.1869
lclavicle 7.7526e-014 0
lhumerus 33.4225 3.87677 73.8569
lradius 129.275
lwrist 25.7113
lhand -21.8597 -17.3129
lfingers 7.12502
lthumb 4.54423 12.6183
rfemur -37.941 -3.36829 23.7901
rtibia 86.3669
rfoot 0.4767 -6.95955
rtoes -8.31724
lfemur -0.19262 -16.0948 -18.4603
ltibia 37.9685
lfoot -22.4767 6.57705
ltoes 5.08804
19
root -0.321379 17.1974 0.670099 19.1613 -76.1036 -39.564
lowerback 34.5048 -13.945 0.604863
upperback 10.3801 -18.704 -1.30467
thorax -5.83381 -9.53506 4.90662
lowerneck 4.33026 9.58662 -1.84584
upperneck 13.6775 12.6095 -4.46673
head 3.94799 5.69047 -0.912126
rclavicle 9.66093e-014 2.22639e-014
rhumerus -50.5296 27.0485 -75.3636
rradius 69.3644
rwrist 6.048
rhand -41.218 44.5964
rfingers 7.12502
rthumb -14.1417 15.0977
lclavicle 9.66093e-014 2.22639e-014
lhumerus 34.2014 3.96977 73.5998
lradius 129.678
lwrist 25.887
lhand -22.0427 -17.2703
lfingers 7.12502
lthumb 4.36755 12.6647
rfemur -40.1152 -3.75221 24.2535
rtibia 88.956
rfoot 0.271024 -5.81021
rtoes -8.96111
lfemur 0.811346 -16.2792 -18.3504
ltibia 37.448
lfoot -22.32 6.70955
ltoes 5.11683
20
root -0.312042 17.2127 0.691868 19.638 -75.8796 -40.7123
lowerback 35.6001 -14.3259 0.458745
upperback 10.576 -19.2616 -1.31904
thorax -5.79971 -9.83674 5.24852
lowerneck 4.26292 9.82247 -1.89271
upperneck 13.391 12.9401 -4.69481
head 3.88112 5.85383 -0.972662
rclavicle -1.60618e-013 6.99722e-014
rhumerus -51.2699 26.2367 -75.4461
rradius 68.2169
rwrist 6.50073
rhand -41.6014 44.7927
rfingers 7.12502
rthumb -14.5111 15.3202
lclavicle -1.60618e-013 6.99722e-014
lhumerus 34.8478 4.04119 73.299
lradius 130.079
lwrist 26.0013
lhand -22.2495 -17.2831
lfingers 7.12502
lthumb 4.16785 12.6558
rfemur -42.337 -4.15419 24.7004
rtibia 91.4998
rfoot 0.0717641 -4.71616
rtoes -9.48114
lfemur 1.83261 -16.4733 -18.3026
ltibia 36.8946
lfoot -22.1364 6.88331
ltoes 5.0662
21
root -0.306996 17.2295 0.713171 19.9913 -75.6622 -41.7687
lowerback 36.556 -14.684 0.340304
upperback 10.9074 -19.7918 -1.38505
thorax -5.70855 -10.1322 5.525
lowerneck 4.05565 10.0366 -2.06679
upperneck 13.1764 13.2415 -4.81352
head 3.84634 5.99683 -0.969894
rclavicle 0 6.67916e-014
rhumerus -51.9852 25.3734 -75.4431
rradius 67.1352
rwrist 6.98223
rhand -41.8748 45.0785
rfingers 7.12502
rthumb -14.7745 15.6251
lclavicle 0 6.67916e-014
lhumerus 35.4414 3.99044 73.0292
lradius 130.44
lwrist 25.9574
lhand -22.4653 -17.3531
lfingers 7.12502
lthumb 3.95945 12.5899
rfemur -44.5104 -4.54122 25.1517
rtibia 93.9609
rfoot -0.174493 -3.70527
rtoes -9.73962
lfemur 2.93524 -16.6426 -18.2739
ltibia 36.2954
lfoot -21.962 7.01627
ltoes 5.05504
22
root -0.302722 17.2483 0.733129 20.3077 -75.4306 -42.7887
lowerback 37.4739 -15.0466 0.298827
upperback 11.247 -20.3043 -1.50001
thorax -5.62222 -10.4171 5.70959
lowerneck 3.83771 10.2237 -2.28719
upperneck 12.9571 13.5003 -4.84617
head 3.79927 6.12101 -0.932879
rclavicle -1.41137e-013 1.04958e-013
rhumerus -52.7114 24.3941 -75.4298
rradius 66.1639
rwrist 7.54194
rhand -42.0071 45.4404
rfingers 7.12502
rthumb -14.902 15.9964
lclavicle -1.41137e-013 1.04958e-013
lhumerus 35.9241 3.83368 72.7824
lradius 130.735
lwrist 25.8415
lhand -22.6324 -17.5378
lfingers 7.12502
lthumb 3.79811 12.4081
rfemur -46.6905 -4.92474 25.6393
rtibia 96.3129
rfoot -0.51832 -2.84029
rtoes -10.281
lfemur 4.05983 -16.7914 -18.2312
ltibia 35.6414
lfoot -21.7413 7.14102
ltoes 5.05389
23
root -0.298731 17.2664 0.751678 20.4784 -75.2077 -43.7282
lowerback 38.4594 -15.3807 0.227758
upperback 11.608 -20.7961 -1.62787
thorax -5.52075 -10.6968 5.89413
lowerneck 3.53908 10.3967 -2.57127
upperneck 12.6939 13.7425 -4.80603
head 3.73873 6.24034 -0.859932
rclavicle 9.42239e-014 -1.22451e-013
rhumerus -53.4341 23.2724 -75.3174
rradius 65.4019
rwrist 8.18075
rhand -41.9097 45.7513
rfingers 7.12502
rthumb -14.8082 16.3004
lclavicle 9.42239e-014 -1.22451e-013
lhumerus 36.3904 3.65222 72.5798
lradius 130.965
lwrist 25.7411
lhand -22.662 -17.7417
lfingers 7.12502
lthumb 3.76952 12.2047
rfemur -48.8198 -5.33653 26.1245
rtibia 98.5702
rfoot -0.841218 -2.10164
rtoes -10.8053
lfemur 5.28022 -16.9355 -18.2208
ltibia 34.9443
lfoot -21.4837 7.25808
ltoes 5.10686
24
root -0.295122 17.2827 0.769085 20.5673 -75.0124 -44.6205
lowerback 39.4789 -15.6812 0.122702
upperback 11.9741 -21.2621 -1.767
thorax -5.409 -10.9677 6.07603
lowerneck 3.29795 10.5405 -2.75664
upperneck 12.3685 13.9482 -4.82086
head 3.6572 6.34917 -0.825408
rclavicle -1.94809e-014 -1.00187e-013
rhumerus -54.1477 21.9338 -75.1345
rradius 64.8129
rwrist 8.88315
rhand -41.6434 45.9094
rfingers 7.12502
rthumb -14.5516 16.4397
lclavicle -1.94809e-014 -1.00187e-013
lhumerus 36.7902 3.4221 72.4428
lradius 131.123
lwrist 25.5584
lhand -22.6102 -17.9595
lfingers 7.12502
lthumb 3.81953 11.986
rfemur -50.9105 -5.70181 26.6068
rtibia 100.746
rfoot -1.16479 -1.51393
rtoes -11.3229
lfemur 6.56973 -17.061 -18.2372
ltibia 34.2114
lfoot -21.2311 7.34565
ltoes 5.16209
25
root -0.291997 17.2972 0.784076 20.5522 -74.8299 -45.4836
lowerback 40.5837 -15.9532 -0.0135693
upperback 12.3378 -21.7088 -1.93613
thorax -5.31677 -11.2295 6.24858
lowerneck 3.10525 10.6697 -2.78467
upperneck 12.0244 14.1396 -4.92106
head 3.58051 6.45691 -0.845385
rclavicle -4.6118e-014 1.43125e-014
rhumerus -54.9486 20.7267 -75.0512
rradius 64.4602
rwrist 9.34064
rhand -41.3201 45.8062
rfingers 7.12502
rthumb -14.24 16.3144
lclavicle -4.6118e-014 1.43125e-014
lhumerus 37.1358 3.13454 72.3243
lradius 131.214
lwrist 25.4657
lhand -22.3872 -18.1759
lfingers 7.12502
lthumb 4.03486 11.7657
rfemur -52.8944 -6.08273 27.0991
rtibia 102.843
rfoot -1.52203 -1.04333
rtoes -11.6854
lfemur 7.94324 -17.1382 -18.2661
ltibia 33.4597
lfoot -20.9718 7.41983
ltoes 5.19038
26
root -0.289952 17.3098 0.798032 20.5183 -74.6813 -46.348
lowerback 41.7147 -16.1674 -0.215697
upperback 12.6981 -22.1141 -2.07619
thorax -5.19598 -11.4794 6.45955
lowerneck 2.75153 10.7842 -2.9429
upperneck 11.7669 14.3186 -4.92864
head 3.54468 6.5503 -0.805265
rclavicle -2.54444e-014 6.20208e-014
rhumerus -55.7411 19.6895 -75.0087
rradius 64.2377
rwrist 9.51475
rhand -41.0579 45.4116
rfingers 7.12502
rthumb -13.9874 15.9022
lclavicle -2.54444e-014 6.20208e-014
lhumerus 37.4489 2.82526 72.2479
lradius 131.217
lwrist 25.3376
lhand -22.1657 -18.3604
lfingers 7.12502
lthumb 4.24872 11.577
rfemur -54.8661 -6.43011 27.6247
rtibia 104.863
rfoot -1.84839 -0.718519
rtoes -12.1045
lfemur 9.34223 -17.1478 -18.2902
ltibia 32.705
lfoot -20.7009 7.43809
ltoes 5.23819
27
root -0.289551 17.3202 0.81111 20.469 -74.5472 -47.1833
lowerback 42.83 -16.3486 -0.422047
upperback 13.0364 -22.4835 -2.22968
thorax -5.08849 -11.7103 6.64418
lowerneck 2.50947 10.8678 -2.97262
upperneck 11.464 14.4536 -5.01761
head 3.4898 6.6282 -0.818701
rclavicle -6.36111e-015 2.70347e-014
rhumerus -56.6019 18.5423 -74.9946
rradius 64.1751
rwrist 9.61009
rhand -40.7881 44.8651
rfingers 7.12502
rthumb -13.7274 15.3379
lclavicle -6.36111e-015 2.70347e-014
lhumerus 37.6446 2.49471 72.1297
lradius 131.161
lwrist 25.2806
lhand -21.9416 -18.5915
lfingers 7.12502
lthumb 4.46518 11.3415
rfemur -56.889 -6.81626 28.2038
rtibia 106.782
rfoot -2.07076 -0.449629
rtoes -12.6143
lfemur 10.7296 -17.1796 -18.3295
ltibia 31.9626
lfoot -20.4301 7.47862
ltoes 5.29675
28
root -0.290857 17.3285 0.822999 20.3962 -74.4308 -47.9975
lowerback 43.9352 -16.4995 -0.640236
upperback 13.376 -22.8276 -2.3885
thorax -4.96441 -11.9326 6.81185
lowerneck 2.19632 10.9387 -2.94386
upperneck 11.2066 14.5807 -5.11643
head 3.46972 6.70147 -0.838511
rclavicle 2.14687e-014 -1.27222e-013
rhumerus -57.5221 17.4336 -75.0478
rradius 64.2746
rwrist 9.52612
rhand -40.6424 44.2068
rfingers 7.12502
rthumb -13.587 14.6701
lclavicle 2.14687e-014 -1.27222e-013
lhumerus 37.7929 2.14199 72.0963
lradius 131.11
lwrist 25.2772
lhand -21.6639 -18.748
lfingers 7.12502
lthumb 4.73329 11.1791
rfemur -58.9011 -7.20723 28.7962
rtibia 108.586
rfoot -2.21977 -0.147058
rtoes -13.0608
lfemur 12.1163 -17.1613 -18.356
ltibia 31.2194
lfoot -20.1816 7.4821
ltoes 5.36865
29
root -0.293478 17.335 0.833622 20.3479 -74.331 -48.7901
lowerback 45.0105 -16.6251 -0.867014
upperback 13.6709 -23.1439 -2.52754
thorax -4.86243 -12.139 6.99042
lowerneck 1.8888 10.9916 -2.86489
upperneck 10.9946 14.6873 -5.2714
head 3.47409 6.76128 -0.882837
rclavicle -1.04163e-013 6.04305e-014
rhumerus -58.4421 16.3913 -75.1229
rradius 64.3415
rwrist 9.31562
rhand -40.6762 43.6133
rfingers 7.12502
rthumb -13.6196 14.0789
lclavicle -1.04163e-013 6.04305e-014
lhumerus 37.7959 1.79322 72.1782
lradius 131.058
lwrist 25.248
lhand -21.4039 -18.937
lfingers 7.12502
lthumb 4.9844 10.9844
rfemur -60.9794 -7.60837 29.4038
rtibia 110.287
rfoot -2.23615 0.235405
rtoes -13.0785
lfemur 13.4585 -17.1022 -18.3611
ltibia 30.4581
lfoot -19.9043 7.48292
ltoes 5.38051
